<?xml version="1.0" standalone="no"?><!DOCTYPE svg PUBLIC "-//W3C//DTD SVG 1.1//EN" "http://www.w3.org/Graphics/SVG/1.1/DTD/svg11.dtd"><svg t="1589778451182" class="icon" viewBox="0 0 1024 1024" version="1.1" xmlns="http://www.w3.org/2000/svg" p-id="2045" width="32" height="32" xmlns:xlink="http://www.w3.org/1999/xlink"><defs><style type="text/css"></style></defs><path d="M881.4 46.8H141.6C96.7 46.8 60 83.5 60 128.4v739.8c0 44.9 36.7 81.6 81.6 81.6h739.8c44.9 0 81.6-36.7 81.6-81.6V128.4c0-44.9-36.8-81.6-81.6-81.6z" fill="#E66E4E" p-id="2046"></path><path d="M511.5 804.8c-41.4 0-81.5-8.1-119.3-24.1-36.5-15.4-69.3-37.5-97.4-65.7-28.1-28.1-50.2-60.9-65.7-97.4-16-37.8-24.1-77.9-24.1-119.3s8.1-81.5 24.1-119.3c15.4-36.5 37.5-69.3 65.7-97.4 28.1-28.1 60.9-50.2 97.4-65.7 37.8-16 77.9-24.1 119.3-24.1s81.5 8.1 119.3 24.1c36.5 15.4 69.3 37.5 97.4 65.7 28.1 28.1 50.2 60.9 65.7 97.4 16 37.8 24.1 77.9 24.1 119.3s-8.1 81.5-24.1 119.3c-15.4 36.5-37.5 69.3-65.7 97.4-28.1 28.1-60.9 50.2-97.4 65.7-37.8 16-77.9 24.1-119.3 24.1z m0-596.3c-159.8 0-289.8 130-289.8 289.8s130 289.8 289.8 289.8 289.8-130 289.8-289.8-130-289.8-289.8-289.8z" fill="#FFFFFF" p-id="2047"></path><path d="M511.3 714c-29.1 0-57.4-5.7-84-17-25.7-10.9-48.8-26.4-68.6-46.2-19.8-19.8-35.4-42.9-46.2-68.6-11.2-26.6-17-54.8-17-84s5.7-57.4 17-84c10.9-25.7 26.4-48.8 46.2-68.6 19.8-19.8 42.9-35.4 68.6-46.2 26.6-11.2 54.8-17 84-17 29.1 0 57.4 5.7 84 17 25.7 10.9 48.8 26.4 68.6 46.2 19.8 19.8 35.4 42.9 46.2 68.6 11.2 26.6 17 54.8 17 84s-5.7 57.4-17 84c-10.9 25.7-26.4 48.8-46.2 68.6-19.9 19.8-42.9 35.4-68.6 46.2-26.6 11.3-54.8 17-84 17z m0-422.9c-114.2 0-207.2 92.9-207.2 207.2S397 705.5 511.3 705.5s207.2-92.9 207.2-207.2-92.9-207.2-207.2-207.2z" fill="#FFA500" p-id="2048"></path><path d="M511.3 714c-29.1 0-57.4-5.7-84-17-25.7-10.9-48.8-26.4-68.6-46.2-19.8-19.8-35.4-42.9-46.2-68.6-11.2-26.6-17-54.8-17-84s5.7-57.4 17-84c10.9-25.7 26.4-48.8 46.2-68.6 19.8-19.8 42.9-35.4 68.6-46.2 26.6-11.2 54.8-17 84-17 29.1 0 57.4 5.7 84 17 25.7 10.9 48.8 26.4 68.6 46.2 19.8 19.8 35.4 42.9 46.2 68.6 11.2 26.6 17 54.8 17 84s-5.7 57.4-17 84c-10.9 25.7-26.4 48.8-46.2 68.6-19.9 19.8-42.9 35.4-68.6 46.2-26.6 11.3-54.8 17-84 17z m0-422.9c-114.2 0-207.2 92.9-207.2 207.2S397 705.5 511.3 705.5s207.2-92.9 207.2-207.2-92.9-207.2-207.2-207.2z" fill="#FFA500" p-id="2049"></path><path d="M353.1 548.2h2.1V422.4c0-2.9-0.7-5-2.1-6.5-1.4-1.4-3.9-2.1-7.5-2.1h-8.5v-6.4h42.6v6.4h-8.5c-2.8 0-5.2 0.7-6.9 2.1-1.8 1.4-2.7 3.6-2.7 6.4v167.3h-6.4l-81-159.5h-2.1v144.6c0 2.9 0.9 5 2.7 6.4 1.8 1.4 4.1 2.1 6.9 2.1h8.5v6.4h-42.6v-6.4h8.5c3.5 0 6-0.7 7.5-2.1 1.4-1.4 2.1-3.5 2.1-6.4V422.3c0-2.8-0.7-5-2.1-6.4-1.4-1.4-3.9-2.1-7.5-2.1h-6.4v-6.4h30.9l72.5 140.8z" fill="#FFFFFF" p-id="2050"></path><path d="M361.8 589.8h-6.7l-0.1-0.1-80.9-159.4h-1.8v144.4c0 2.8 0.8 4.9 2.6 6.3 1.7 1.4 4 2.1 6.8 2.1h8.7v6.8h-43.1V583h8.7c3.5 0 5.9-0.7 7.3-2.1 1.4-1.4 2.1-3.5 2.1-6.2V422.3c0-2.8-0.7-4.9-2.1-6.2-1.4-1.4-3.8-2.1-7.3-2.1h-6.6v-6.8h31.3l0.1 0.1L353.2 548h1.8V422.4c0-2.8-0.7-4.9-2.1-6.3-1.4-1.4-3.8-2.1-7.3-2.1h-8.7v-6.8H380v6.8h-8.7c-2.8 0-5.1 0.7-6.8 2.1-1.7 1.4-2.6 3.5-2.6 6.2v167.5z m-6.5-0.4h6.1V422.3c0-2.9 0.9-5.1 2.7-6.6 1.8-1.4 4.2-2.2 7.1-2.2h8.3v-6h-42.2v6h8.3c3.6 0 6.1 0.7 7.6 2.2 1.5 1.5 2.2 3.7 2.2 6.6v126.1h-2.5l-0.1-0.1-72.4-140.7h-30.6v6h6.2c3.6 0 6.1 0.7 7.6 2.2 1.5 1.5 2.2 3.7 2.2 6.5v152.4c0 2.9-0.7 5.1-2.2 6.5-1.5 1.5-4 2.2-7.6 2.2h-8.3v6H290v-6h-8.3c-2.9 0-5.3-0.7-7.1-2.2-1.8-1.5-2.7-3.7-2.7-6.6V429.9h2.5l0.1 0.1 80.8 159.4zM390.4 413.8v-6.4h104.4l11.7 36.2-5.3 2.1c-5.7-10.7-11.7-18.7-18.1-24-6.4-5.3-13.5-8-21.3-8H432c-2.8 0-5.2 0.7-6.9 2.1-1.8 1.4-2.7 3.6-2.7 6.4v66.1h30.9c7.1 0 12.3-1.8 15.5-5.3 3.2-3.5 4.8-8.9 4.8-16v-6.4h6.4v62.9h-6.4v-4.3c0-7.8-1.6-13.9-4.8-18.1-3.2-4.3-8.4-6.4-15.5-6.4h-30.9v79.9c0 2.8 0.9 5 2.7 6.4 1.8 1.4 4.1 2.1 6.9 2.1h27.7c10.7 0 19.7-3 27.2-9.1 7.5-6 13.3-15.5 17.6-28.2l5.3 2.1-11.8 41.7H389.3v-6.4h6.4c3.5 0 6-0.7 7.5-2.1 1.4-1.4 2.1-3.5 2.1-6.4V422.3c0-2.8-0.7-5-2.1-6.4-1.4-1.4-3.9-2.1-7.5-2.1h-5.3z" fill="#FFFFFF" p-id="2051"></path><path d="M498.2 589.8H389.1V583h6.6c3.5 0 5.9-0.7 7.3-2.1 1.4-1.4 2.1-3.5 2.1-6.2V422.3c0-2.8-0.7-4.9-2.1-6.2-1.4-1.4-3.8-2.1-7.3-2.1h-5.5v-6.8H495l11.8 36.6-5.7 2.3-0.1-0.2c-5.7-10.6-11.7-18.6-18.1-23.9-6.3-5.3-13.5-7.9-21.2-7.9h-29.8c-2.8 0-5.1 0.7-6.8 2.1-1.7 1.4-2.6 3.5-2.6 6.2v65.9h30.7c7 0 12.2-1.8 15.3-5.3 3.1-3.5 4.7-8.8 4.7-15.8v-6.6h6.8v63.3h-6.8v-4.5c0-7.7-1.6-13.8-4.8-18-3.1-4.2-8.3-6.3-15.3-6.3h-30.7v79.7c0 2.8 0.9 4.9 2.6 6.2 1.7 1.4 4 2.1 6.8 2.1h27.7c10.6 0 19.7-3 27-9 7.4-6 13.3-15.4 17.5-28.1l0.1-0.2 5.7 2.3-11.6 41.7z m-108.7-0.4h108.3l11.6-41.2-4.9-2c-4.3 12.7-10.2 22.1-17.6 28.1-7.5 6-16.6 9.1-27.3 9.1h-27.7c-2.9 0-5.3-0.7-7.1-2.2-1.8-1.4-2.7-3.7-2.7-6.6v-80.1h31.1c7.1 0 12.4 2.2 15.6 6.5 3.2 4.3 4.8 10.4 4.8 18.2v4h6v-62.5h-6v6.2c0 7.1-1.6 12.6-4.9 16.1-3.2 3.6-8.5 5.4-15.6 5.4H422v-66.3c0-2.9 0.9-5.1 2.7-6.6 1.8-1.4 4.2-2.2 7.1-2.2h29.8c7.8 0 15 2.7 21.5 8 6.3 5.3 12.4 13.3 18.1 23.9l5-2-11.6-35.9h-104v6h5.1c3.6 0 6.1 0.7 7.6 2.2 1.5 1.5 2.2 3.7 2.2 6.5v152.4c0 2.9-0.7 5.1-2.2 6.5-1.5 1.5-4 2.2-7.6 2.2h-6.2v6.3z" fill="#FFFFFF" p-id="2052"></path><path d="M652.6 407.4v6.4h-4.3c-1.4 0-3 0.7-4.8 2.1-1.8 1.4-3 3.9-3.7 7.5L611 589.6h-6.4l-17.1-113h-2.1l-22.4 113h-6.4L531 422.3c0-2.8-0.5-5-1.6-6.4-1.1-1.4-2.7-2.1-4.8-2.1h-4.3v-6.4h37.3v6.4h-3.2c-2.8 0-5 0.7-6.4 2.1-1.4 1.4-2.1 3.6-2.1 6.4L563 539.5h2.1l18.1-88.5-3.2-28.8c0-2.8-0.9-5-2.7-6.4-1.8-1.4-3.4-2.1-4.8-2.1h-3.2v-6.4h36.2v6.4h-3.2c-2.8 0-4.8 0.7-5.9 2.1-1.1 1.4-1.6 3.6-1.6 6.4l16 114h2.1l19.2-111.9c0.7-3.5 0.2-6.2-1.6-8-1.8-1.8-4.1-2.7-6.9-2.7h-3.2v-6.4h32.2z" fill="#FFFFFF" p-id="2053"></path><path d="M611.2 589.8h-6.8v-0.2l-17-112.8h-1.8l-22.4 113h-6.8v-0.2l-25.6-167.3c0-2.8-0.5-4.9-1.6-6.3-1-1.4-2.6-2-4.6-2h-4.5v-6.8h37.7v6.8h-3.4c-2.8 0-4.9 0.7-6.2 2.1-1.4 1.4-2.1 3.5-2.1 6.2l17 117h1.8L583 451l-3.2-28.7c0-2.8-0.9-4.9-2.6-6.3-1.7-1.4-3.3-2.1-4.7-2.1h-3.4v-6.8h36.7v6.8h-3.4c-2.8 0-4.7 0.7-5.7 2-1 1.4-1.6 3.5-1.6 6.3l16 113.8h1.8l19.2-111.7c0.7-3.5 0.2-6.1-1.5-7.8-1.7-1.7-4-2.6-6.8-2.6h-3.4v-6.8h32.4v6.8h-4.5c-1.4 0-2.9 0.7-4.7 2.1-1.7 1.4-3 3.9-3.7 7.3l-28.7 166.5z m-6.4-0.4h6l28.7-166.1c0.7-3.6 2-6.1 3.8-7.6 1.8-1.4 3.5-2.2 4.9-2.2h4v-6h-31.5v6h3c2.9 0 5.3 0.9 7.1 2.7 1.8 1.8 2.4 4.6 1.7 8.2l-19.2 112.1h-2.5v-0.2l-16-114c0-2.9 0.6-5.1 1.6-6.6 1.1-1.5 3.1-2.2 6-2.2h3v-6h-35.8v6h3c1.5 0 3.1 0.7 4.9 2.2 1.8 1.5 2.7 3.7 2.7 6.6l3.2 28.8-18.2 88.6h-2.5v-0.2l-17.1-117.2c0-2.9 0.7-5.1 2.2-6.6 1.5-1.5 3.7-2.2 6.5-2.2h3v-6h-36.9v6h4c2.2 0 3.9 0.7 5 2.2 1.1 1.5 1.6 3.7 1.6 6.5l25.5 167.1h6l22.4-113h2.5v0.2l17.4 112.9z" fill="#FFFFFF" p-id="2054"></path><path d="M718.6 502.2c-19.2-8.5-32.3-16-39.4-22.4-7.1-6.4-10.7-16.3-10.7-29.8 0-10.7 4.4-20.8 13.3-30.4 8.9-9.6 21.5-14.4 37.8-14.4 7.1 0 13.9 1.1 20.3 3.2 6.4 2.8 11 4.3 13.9 4.3 2.1 0 4.1-0.5 5.9-1.6 1.8-1.1 3.4-3 4.8-5.9l4.3 43.7-5.3 2.1c-6.4-14.9-13-25-19.7-30.4-6.8-5.3-15.5-8-26.1-8-13.5 0-22.7 3.7-27.7 11.2-5 7.5-7.5 15.5-7.5 24 0 7.8 2.3 14.1 6.9 18.7 4.6 4.6 17.2 11.6 37.8 20.8 17.1 6.9 29.3 14.8 36.8 23.7 7.5 8.9 11.2 19.4 11.2 31.5 0 12.8-4.4 24.2-13.3 34.2-8.9 10-21.8 15-38.9 15-7.1 0-13.5-1.4-19.2-4.3-6.4-2.1-11.4-3.2-14.9-3.2-2.1 0-4.3 0.7-6.4 2.1-2.1 1.4-4.6 3.2-7.5 5.3l-8.5-52.2 6.4-2.1c5 17.8 11.9 30 20.8 36.8 8.9 6.8 19 10.1 30.4 10.1 12.1 0 21.1-3.5 27.2-10.7 6-7.1 9.1-17.4 9.1-30.9 0-7.1-3.4-14-10.1-20.8-7-6.6-17.5-13.2-31.7-19.6z" fill="#FFFFFF" p-id="2055"></path><path d="M674.8 592.1l-8.6-52.8 6.8-2.3 0.1 0.2c4.9 17.6 11.9 30 20.7 36.7 8.8 6.7 19 10.1 30.2 10.1 12 0 21-3.6 27-10.6s9-17.4 9-30.8c0-7-3.4-13.9-10.1-20.6-6.7-6.7-17.3-13.3-31.4-19.7-19.1-8.5-32.4-16-39.5-22.4-7.1-6.4-10.7-16.5-10.7-30 0-10.7 4.5-20.9 13.4-30.5 8.9-9.6 21.7-14.5 38-14.5 7.1 0 13.9 1.1 20.3 3.2 6.3 2.8 11 4.3 13.8 4.3 2.1 0 4-0.5 5.8-1.6 1.7-1 3.3-3 4.7-5.8l0.3-0.7 4.4 44.6-5.7 2.3-0.1-0.2c-6.3-14.8-13-25-19.7-30.3-6.7-5.3-15.4-7.9-26-7.9-13.4 0-22.6 3.7-27.5 11.1-4.9 7.4-7.4 15.4-7.4 23.9 0 7.7 2.3 14 6.9 18.5 4.6 4.6 17.3 11.6 37.8 20.8 17 6.9 29.4 14.9 36.8 23.8 7.5 8.9 11.2 19.6 11.2 31.7 0 12.8-4.5 24.4-13.4 34.3-8.9 10-22 15-39.1 15-7.1 0-13.6-1.4-19.3-4.3-6.3-2.1-11.3-3.2-14.8-3.2-2.1 0-4.2 0.7-6.3 2.1-2.3 1.6-4.9 3.4-7.5 5.3l-0.1 0.3z m14-8c3.6 0 8.6 1.1 15 3.2 5.6 2.8 12.1 4.3 19.1 4.3 16.9 0 29.9-5 38.7-14.9 8.8-9.9 13.3-21.4 13.3-34.1 0-12-3.7-22.6-11.1-31.4-7.4-8.8-19.8-16.8-36.7-23.7-20.6-9.2-33.3-16.2-37.9-20.8-4.6-4.6-7-11-7-18.8 0-8.5 2.5-16.6 7.5-24.1s14.4-11.3 27.9-11.3c10.6 0 19.5 2.7 26.2 8 6.7 5.3 13.3 15.5 19.7 30.3l5-2-4.2-42.8c-1.4 2.5-2.9 4.3-4.5 5.3-1.8 1.1-3.8 1.6-6 1.6-2.9 0-7.6-1.4-13.9-4.3-6.3-2.1-13.1-3.2-20.2-3.2-16.2 0-28.9 4.8-37.7 14.3-8.8 9.5-13.3 19.7-13.3 30.2 0 13.4 3.6 23.4 10.6 29.7 7 6.3 20.3 13.9 39.4 22.3 14.2 6.4 24.8 13 31.5 19.8 6.8 6.8 10.2 13.8 10.2 20.9 0 13.5-3.1 23.9-9.1 31-6.1 7.1-15.3 10.7-27.3 10.7-11.4 0-21.6-3.4-30.5-10.2-8.9-6.7-15.8-19.1-20.8-36.7l-6 2 8.4 51.7a123 123 0 0 1 7.2-5.1c2.1-1.2 4.3-1.9 6.5-1.9z" fill="#FFFFFF" p-id="2056"></path></svg>